<?xml version="1.0" encoding="utf-8"?>
<!-- Generator: Adobe Illustrator 25.4.1, SVG Export Plug-In . SVG Version: 6.00 Build 0)  -->
<svg version="1.1" id="Layer_1" xmlns="http://www.w3.org/2000/svg" xmlns:xlink="http://www.w3.org/1999/xlink" x="0px" y="0px"
	 viewBox="0 0 4000 4000" style="enable-background:new 0 0 4000 4000;" xml:space="preserve">
<style type="text/css">
	.st0{fill:url(#XMLID_00000064355227572302513370000013638973737757129644_);}
	.st1{fill:#ED3465;}
	.st2{fill:#19B5FE;}
	.st3{opacity:0.3;}
	.st4{fill:#6B184E;}
	.st5{fill:#EF6CA4;}
	.st6{opacity:0.6;}
	.st7{fill:#E6E7E8;}
	.st8{fill:#871A51;}
	.st9{fill:#7856A3;}
	.st10{fill:#FFFFFF;}
	.st11{fill:#FDD800;}
	.st12{fill:#FFDFEC;}
	.st13{opacity:0.2;}
</style>
<linearGradient id="XMLID_00000114065706396039335830000001962392157073222835_" gradientUnits="userSpaceOnUse" x1="5804.7876" y1="4964.3066" x2="-1539.6423" y2="-1070.323">
	<stop  offset="0.0448" style="stop-color:#0AD418"/>
	<stop  offset="0.8683" style="stop-color:#0DDE0D"/>
</linearGradient>
<rect id="XMLID_00000126289240074882383560000011014005751810157481_" x="-226.67" y="-105" style="fill:url(#XMLID_00000114065706396039335830000001962392157073222835_);" width="5054.42" height="4380"/>
<g>
	<g>
		<g>
			<g>
				<path class="st1" d="M3380.84,3888.46c-352.08,134.14-630.11-28.13-849.02-427.09c-23.92-63.72-40.37-126.77-49.94-188.77
					c-79.41-514.25,309.51-948.71,695.75-979.04c126.39,186.37,135.57,354.86,95.58,509.18
					C3155.43,3257.19,2610.94,3588.23,3380.84,3888.46z"/>
			</g>
		</g>
	</g>
	<g>
		<g>
			<g>
				<path class="st2" d="M3543.14,2875.13c-108.78,429.01-514.54,761.67-168.1,1010.14c-769.9-300.23-225.41-631.26-107.63-1085.72
					c39.99-154.32,30.81-322.81-95.58-509.18c112.23-8.9,224.26,16.46,324.53,83.81
					C3582.94,2554.05,3582.27,2720.81,3543.14,2875.13z"/>
			</g>
		</g>
	</g>
	<g class="st3">
		<g>
			<g>
				<path class="st4" d="M3543.14,2875.13c-56.74-36.36-150.21-78.55-275.74-75.58c-97.21,2.3-213.55,31.67-347.01,111.75
					c-177.29,106.39-327.59,240.34-444.31,358.11c-79.41-514.25,309.51-948.71,695.75-979.04c112.23-8.9,224.26,16.46,324.53,83.81
					C3582.94,2554.05,3582.27,2720.81,3543.14,2875.13z"/>
			</g>
		</g>
	</g>
	<g>
		<g>
			<g>
				<path class="st4" d="M3142.17,3965c-249.96,0-466.32-164.16-645.5-490.72c-0.76-1.38-1.42-2.83-1.98-4.31
					c-104.77-278.23-75.28-578.74,80.9-824.48c141.08-221.97,368.54-370.84,593.63-388.51c11.98-0.95,23.58,4.63,30.33,14.59
					c241,355.37,73.12,654.64-61.77,895.11c-88.2,157.22-164.37,293.01-121.22,413.49c36.23,101.17,157.47,190.76,370.66,273.89
					c12.9,5.04,21.37,17.49,21.32,31.33c-0.06,13.85-8.63,26.23-21.57,31.16C3302.16,3948.86,3220.49,3965,3142.17,3965z
					 M2556.53,3444.15c199.88,363.17,436.51,506.84,721.21,436.71c-182.22-82.07-286.08-171.53-324.24-278.11
					c-53.43-149.21,33.66-304.47,125.86-468.84c130.15-232.02,277.38-494.47,75.64-808.28c-198.16,22.92-397,157.7-522.89,355.78
					C2485.61,2911.91,2458.8,3182.69,2556.53,3444.15z"/>
			</g>
		</g>
	</g>
	<g>
		<g>
			<g>
				<path class="st4" d="M3375.03,3918.76c-4.06,0-8.17-0.75-12.16-2.29c-235.54-91.86-365.63-191.54-409.38-313.72
					c-53.43-149.21,33.66-304.47,125.86-468.84c132.42-236.07,282.52-503.64,64.75-824.76c-6.69-9.86-7.63-22.54-2.47-33.29
					s15.65-17.94,27.54-18.88c124.51-9.88,244.11,21.05,345.85,89.41c4.94,3.32,8.91,7.9,11.49,13.26
					c173,359.25,10.55,671.96-119.99,923.2c-141.12,271.63-211.26,432.26-11.98,575.21c13.71,9.83,17.96,28.34,9.92,43.17
					C3398.47,3912.31,3387,3918.76,3375.03,3918.76z M3231.54,2322.47c192.94,333.14,34.64,615.3-93.76,844.21
					c-88.2,157.22-164.37,293.01-121.22,413.49c26.76,74.72,99.89,143.13,222.18,207.28c-87.16-159.08,8.43-343.1,108.38-535.47
					c129-248.3,275.06-529.46,123.02-854.98C3398.49,2350.82,3317.04,2325.49,3231.54,2322.47z"/>
			</g>
		</g>
	</g>
</g>
<g>
	<g>
		<g>
			<path class="st5" d="M3306.73,2563.23c-0.1-8.8-1.24-17.7-3.44-26.5l-199.67-816.59c-2.3-9.47-5.74-18.47-9.95-26.79
				c17.6-3.25,34.83-5.64,51.66-7.27c72.81-7.18,138.54,0.29,196.52,18.56C3726.55,1826.44,3776.69,2433.02,3306.73,2563.23z"/>
		</g>
	</g>
</g>
<g class="st6">
	<g>
		<g>
			<path class="st7" d="M3642.36,2088.21c-32.34-119.12-110.89-225.7-228.57-282.91c-44.78,54.34-165.9,22.2-186.09-44.01
				c-21.91-0.67-44.58,0.1-68.03,2.39c-14.35,1.43-29.08,3.35-44.01,5.93l-12.06-49.46c-2.3-9.47-5.74-18.47-9.95-26.79
				c17.6-3.25,34.83-5.64,51.66-7.27c72.81-7.18,138.54,0.29,196.52,18.56C3519.22,1760.81,3625.62,1920.1,3642.36,2088.21z"/>
		</g>
	</g>
</g>
<g class="st3">
	<g>
		<g>
			<path class="st8" d="M3271.11,2498.3c-0.1-8.8-1.24-17.7-3.44-26.5l-39.8-162.65c246.75-82.76,336.58-304.15,300.71-502.96
				C3683.66,2034.27,3623.96,2400.52,3271.11,2498.3z"/>
		</g>
	</g>
	<g>
		<g>
			<path class="st4" d="M3266.02,2505.07l-0.08-6.71c-0.09-8.45-1.2-16.95-3.29-25.31l-40.94-167.3l4.51-1.5
				c252.07-84.55,330.93-310.61,297.27-497.14l-4.32-23.94l13.68,20.11c84.05,123.61,104.76,286.26,54.04,424.48
				c-49.62,135.23-161.28,233.08-314.4,275.51L3266.02,2505.07z M3234.01,2312.51l38.68,158.05c1.73,6.91,2.85,13.95,3.32,20.97
				c146.59-42.42,253.42-137.16,301.18-267.33c46.84-127.67,31.35-276.67-39.81-394.69
				C3560.87,2014.21,3477.61,2228.53,3234.01,2312.51z"/>
		</g>
	</g>
</g>
<g>
	<g>
		<g>
			<g>
				<path class="st9" d="M3306.73,2563.23c1.34,57.12-37.22,109.74-94.72,123.8c-66.4,16.26-134.04-24.78-150.31-91.18
					l-199.67-816.68c-16.26-66.4,24.88-134.04,91.27-150.21c9.85-2.39,19.71-3.54,29.37-3.54c46.59,0,89.74,26.41,110.98,67.93
					c4.21,8.32,7.65,17.32,9.95,26.79l199.67,816.59C3305.49,2545.53,3306.64,2554.43,3306.73,2563.23z"/>
			</g>
		</g>
	</g>
</g>
<g class="st6">
	<g>
		<g>
			<g>
				<path class="st7" d="M3306.73,2563.23c0.38,15.79-2.3,31.19-7.65,45.54l-195.46-799.36c-2.3-9.47-5.74-18.47-9.95-26.79
					c-21.24-41.52-64.39-67.93-110.98-67.93c-9.66,0-19.52,1.15-29.37,3.54c-41.62,10.14-73.29,40.47-87.06,78.07l-4.21-17.13
					c-16.26-66.4,24.88-134.04,91.27-150.21c9.85-2.39,19.71-3.54,29.37-3.54c46.59,0,89.74,26.41,110.98,67.93
					c4.21,8.32,7.65,17.32,9.95,26.79l199.67,816.59C3305.49,2545.53,3306.64,2554.43,3306.73,2563.23z"/>
			</g>
		</g>
	</g>
</g>
<g class="st3">
	<g>
		<g>
			<g>
				<path class="st8" d="M3283.78,2488.69c1.34,57.12-37.22,109.74-94.72,123.8c-66.4,16.26-134.04-24.78-150.31-91.18
					l-199.67-816.68c-2.58-10.72-3.73-21.43-3.54-31.96l152.79,624.76c16.26,66.4,83.91,107.44,150.3,91.18
					c55.78-13.68,93.76-63.62,94.72-118.73l46.98,192.31C3282.54,2470.99,3283.69,2479.88,3283.78,2488.69z"/>
			</g>
		</g>
		<g>
			<g>
				<path class="st4" d="M3159.49,2621.24c-58.24,0.01-111.29-39.65-125.76-98.69l-199.67-816.69c-2.65-10.98-3.89-22.17-3.68-33.27
					l0.73-39.82l162.25,663.44c15.63,63.82,80.26,103.01,144.05,87.39c52.52-12.89,89.85-59.68,90.78-113.81l0.69-40l56.47,231.18
					c2.28,9.09,3.49,18.4,3.59,27.64c1.4,60.37-40.09,114.57-98.66,128.9C3179.99,2620.03,3169.66,2621.24,3159.49,2621.24z
					 M2998.64,2335.47l45.14,184.61c15.64,63.82,80.27,103.02,144.05,87.39c53.91-13.19,92.08-63.09,90.78-118.66v-0.06
					c-0.09-8.45-1.2-16.95-3.29-25.31l-40.39-165.33c-11.17,46.35-47.35,83.81-95.07,95.52
					C3083.87,2407.32,3027.28,2382.19,2998.64,2335.47z"/>
			</g>
		</g>
	</g>
</g>
<g>
	<g>
		<g>
			<path class="st4" d="M3306.73,2596.72c-7.18,0-14.26-2.31-20.13-6.72c-8.31-6.25-13.24-16-13.36-26.4
				c-0.07-6.21-0.89-12.51-2.45-18.74l-199.72-816.76c-1.6-6.63-4.06-13.21-7.31-19.64c-4.76-9.42-4.8-20.53-0.12-29.98
				c4.68-9.45,13.55-16.14,23.92-18.05c18.08-3.34,36.41-5.92,54.51-7.68c74.06-7.28,144.65-0.59,209.82,19.96
				c199.17,63.05,330.28,252.74,326.3,472.03c-3.09,170.2-99.95,378.01-362.54,450.77
				C3312.73,2596.32,3309.73,2596.72,3306.73,2596.72z M3138.18,1720.51l195.41,799.18c171.47-60.73,274.45-199.01,277.66-376.18
				c2.86-157.61-82.46-344.55-279.51-406.94c-56.46-17.79-118.08-23.57-183.13-17.18
				C3145.14,1719.74,3141.66,1720.11,3138.18,1720.51z"/>
		</g>
	</g>
</g>
<g>
	<g>
		<g>
			<g>
				<path class="st8" d="M3182.41,2724.12c-28.51,0-56.62-7.82-81.72-23.05c-36.12-21.91-61.51-56.45-71.51-97.25l-199.68-816.7
					c-9.99-40.77-3.41-83.11,18.52-119.23c21.95-36.14,56.52-61.52,97.36-71.47c12.27-2.98,24.81-4.48,37.3-4.48
					c58.76,0,114.02,33.82,140.8,86.16c5.64,11.16,9.88,22.6,12.68,34.16l199.66,816.52c2.77,11.06,4.26,22.52,4.4,33.89
					c1.62,73.49-48.92,139.44-120.24,156.89C3207.52,2722.61,3194.93,2724.12,3182.41,2724.12z M2982.68,1658.91
					c-7.18,0-14.4,0.88-21.47,2.59c-23.41,5.7-43.28,20.31-55.94,41.15c-12.63,20.81-16.44,45.15-10.71,68.54l199.68,816.71
					c5.73,23.41,20.36,43.27,41.19,55.91c20.82,12.63,45.19,16.44,68.62,10.7c41.1-10.05,70.2-48.12,69.21-90.49
					c0-0.14-0.01-0.28-0.01-0.42c-0.07-6.21-0.89-12.51-2.45-18.74l-199.72-816.76c-1.6-6.63-4.06-13.21-7.31-19.64
					C3048.41,1678.42,3016.55,1658.91,2982.68,1658.91z"/>
			</g>
		</g>
	</g>
</g>
<g>
	<g>
		<g>
			<path class="st5" d="M902.23,1634.99c-4.59,8.13-8.32,17.03-11.1,26.41l-234.6,807.3c-2.58,8.71-4.02,17.51-4.59,26.12
				c-435.7-141.02-394.95-682.26-65.73-834.57c58.84-27.27,126.86-42,203.21-39.99C825.21,1621.31,862.81,1626.1,902.23,1634.99z"/>
		</g>
	</g>
</g>
<g class="st6">
	<g>
		<g>
			<path class="st7" d="M902.23,1634.99c-4.59,8.13-8.32,17.03-11.1,26.41l-234.6,807.3c-2.58,8.71-4.02,17.51-4.59,26.12
				c-5.64-1.82-11.29-3.73-16.74-5.74l215.27-740.81c2.77-9.38,6.51-18.27,11.1-26.41c-17.22-3.92-34.06-6.98-50.52-9.28
				c-25.07,61.14-141.89,64.01-168.96,3.25c-34.44,6.79-66.69,17.41-96.54,31.29c-80.27,37.12-143.42,97.49-186.66,169.44
				c38.17-109.45,116.44-204.94,227.32-256.31c58.84-27.27,126.86-42,203.21-39.99C825.21,1621.31,862.81,1626.1,902.23,1634.99z"/>
		</g>
	</g>
</g>
<g class="st3">
	<g>
		<g>
			<path class="st8" d="M757.21,2202.12l-58.27,200.53c-2.58,8.71-4.02,17.51-4.59,26.12
				c-325.96-105.53-385.28-435.13-256.41-658.15C433.93,1948.68,531.71,2129.02,757.21,2202.12z"/>
		</g>
	</g>
	<g>
		<g>
			<path class="st4" d="M699.08,2435.74l-6.31-2.05c-181.3-58.69-259.87-176.47-293.87-264.93
				c-49.26-128.21-36.34-278.01,34.57-400.72l10.1-17.47l-0.45,20.17c-3.51,155.55,77.58,349.27,315.69,426.46l4.76,1.54
				l-59.66,205.34c-2.34,7.9-3.82,16.32-4.39,25.03L699.08,2435.74z M432.79,1790.74c-60.82,116.58-70.07,255.03-24.24,374.32
				c32.8,85.35,108.19,198.69,281.25,256.78c0.83-7.13,2.24-14.06,4.19-20.66l56.87-195.7
				C521.14,2128.88,436.4,1945.15,432.79,1790.74z"/>
		</g>
	</g>
</g>
<g class="st3">
	<g>
		<g>
			<path class="st8" d="M902.23,1634.99c-4.59,8.13-8.32,17.03-11.1,26.41l-175.95,605.33c0.67-8.13,2.11-16.36,4.5-24.59
				l176.81-608.4C898.4,1634.13,900.32,1634.52,902.23,1634.99z"/>
		</g>
	</g>
</g>
<g class="st3">
	<g>
		<g>
			<path class="st8" d="M715.18,2266.73c0,0.48-0.1,1.05-0.1,1.53c-0.1,0-0.19-0.1-0.29-0.1L715.18,2266.73z"/>
		</g>
	</g>
</g>
<g>
	<g>
		<g>
			<path class="st4" d="M3182.41,2724.12c-28.51,0-56.62-7.82-81.72-23.05c-36.12-21.91-61.51-56.45-71.51-97.25l-199.68-816.7
				c-9.99-40.77-3.41-83.11,18.52-119.23c21.95-36.14,56.52-61.52,97.36-71.47c12.27-2.98,24.81-4.48,37.3-4.48
				c58.76,0,114.02,33.82,140.8,86.16c5.64,11.16,9.88,22.6,12.68,34.16l199.66,816.52c2.77,11.06,4.26,22.52,4.4,33.89
				c1.62,73.49-48.92,139.44-120.24,156.89C3207.52,2722.61,3194.93,2724.12,3182.41,2724.12z M2982.68,1658.91
				c-7.18,0-14.4,0.88-21.47,2.59c-23.41,5.7-43.28,20.31-55.94,41.15c-12.63,20.81-16.44,45.15-10.71,68.54l199.68,816.71
				c5.73,23.41,20.36,43.27,41.19,55.91c20.82,12.63,45.19,16.44,68.62,10.7c41.1-10.05,70.2-48.12,69.21-90.49
				c0-0.14-0.01-0.28-0.01-0.42c-0.07-6.21-0.89-12.51-2.45-18.74l-199.72-816.76c-1.6-6.63-4.06-13.21-7.31-19.64
				C3048.41,1678.42,3016.55,1658.91,2982.68,1658.91z"/>
		</g>
	</g>
</g>
<g>
	<g>
		<g>
			<path class="st9" d="M1129.94,1730.76l-234.6,807.3c-19.04,65.63-88.4,103.71-154.04,84.67
				c-57.02-16.65-93.28-70.99-89.36-127.92c0.57-8.61,2.01-17.41,4.59-26.12l234.6-807.3c2.77-9.38,6.51-18.27,11.1-26.41
				c22.1-39.04,64.01-63.24,108.49-63.24c11.48,0,23.06,1.63,34.54,4.98C1110.9,1595.77,1148.98,1665.13,1129.94,1730.76z"/>
		</g>
	</g>
</g>
<g class="st6">
	<g>
		<g>
			<path class="st7" d="M1129.94,1730.76l-234.6,807.3c-7.85,26.98-24.21,49.37-45.25,64.87L1082.58,1803
				c19.04-65.63-19.04-135-84.67-154.04c-11.48-3.35-23.06-4.97-34.54-4.97c-27.08,0-53.2,8.99-74.43,24.88l2.2-7.46
				c2.77-9.38,6.51-18.27,11.1-26.41c22.1-39.04,64.01-63.24,108.49-63.24c11.48,0,23.06,1.63,34.54,4.98
				C1110.9,1595.77,1148.98,1665.13,1129.94,1730.76z"/>
		</g>
	</g>
</g>
<g class="st3">
	<g>
		<g>
			<path class="st8" d="M971.59,2273.33l-54.82,188.57c-19.04,65.63-88.4,103.71-154.04,84.67
				c-57.02-16.65-93.28-70.99-89.36-127.92c0.57-8.61,2.01-17.41,4.59-26.12l234.6-807.3c2.3-7.65,5.17-14.93,8.71-21.81
				L741.5,2182.05c-2.58,8.71-4.02,17.51-4.59,26.12c-3.92,56.93,32.34,111.27,89.36,127.92
				C884.15,2352.93,945,2325.18,971.59,2273.33z"/>
		</g>
	</g>
	<g>
		<g>
			<path class="st4" d="M797.31,2556.69c-12.05,0-24.15-1.71-36.01-5.15c-58.09-16.95-97.23-72.98-93.08-133.24
				c0.64-9.47,2.25-18.63,4.79-27.23l234.59-807.28c2.42-8.09,5.47-15.72,9.07-22.74l9.56,3.8l-179.77,618.63
				c-2.34,7.88-3.81,16.29-4.39,25.02c-3.82,55.45,32.2,107.02,85.65,122.62c54.64,15.88,113.26-9.4,139.29-60.16l9.56,3.8
				l-54.82,188.58c-9.59,33.06-31.61,60.47-62.02,77.17C840.22,2551.24,818.85,2556.69,797.31,2556.69z M731.79,2225.85
				l-48.86,168.13c-2.34,7.9-3.81,16.31-4.39,25.02c-3.82,55.45,32.2,107.02,85.66,122.61c30.41,8.84,62.57,5.23,90.56-10.14
				c27.98-15.38,48.25-40.59,57.07-71l45.86-157.73c-32.59,36.57-84.14,52.5-132.85,38.32
				C772.58,2325.8,735.67,2278.95,731.79,2225.85z"/>
		</g>
	</g>
</g>
<g>
	<g>
		<g>
			<path class="st4" d="M651.94,2528.31c-3.46,0-6.94-0.53-10.31-1.62c-202.16-65.43-330.03-223.77-342.06-423.53
				c-12.17-202.03,97.38-392.23,272.58-473.3c66.13-30.65,139.45-45.21,218.16-43.07c38.51,1.13,78.61,6.36,119.3,15.54
				c10.33,2.33,18.94,9.42,23.24,19.09c4.29,9.68,3.75,20.82-1.45,30.03c-3.34,5.92-6.09,12.46-8.15,19.45l-234.55,807.15
				c-1.79,6.02-2.89,12.35-3.34,19c-0.69,10.3-6.09,19.7-14.63,25.49C665.12,2526.35,658.56,2528.31,651.94,2528.31z
				 M775.61,1653.57c-63.24,0-122.19,12.45-175.32,37.08c-150.42,69.59-244.39,233.75-233.87,408.49
				c9.75,161.95,104.08,288.16,260.62,351.09l229.54-789.94c-23.24-3.7-46.04-5.89-68.14-6.54
				C784.15,1653.63,779.87,1653.57,775.61,1653.57z"/>
		</g>
	</g>
</g>
<g>
	<g>
		<g>
			<path class="st4" d="M775.9,2661.17c-14.53,0-29.29-2.02-43.92-6.27c-70.82-20.68-118.5-88.97-113.44-162.38
				c0.77-11.52,2.76-22.77,5.9-33.35l234.54-807.12c3.55-11.98,8.27-23.2,14.1-33.51c28.03-49.53,80.77-80.27,137.65-80.27
				c14.78,0,29.56,2.12,43.92,6.32c40.28,11.68,73.7,38.52,94.06,75.55c20.34,37.02,25.1,79.62,13.4,119.95
				c0,0.01-0.01,0.01-0.01,0.02l-234.59,807.3C907.51,2616.29,844.33,2661.17,775.9,2661.17z M1010.72,1605.24
				c-32.8,0-63.2,17.73-79.35,46.26c-3.33,5.88-6.07,12.42-8.13,19.41l-234.55,807.15c-1.79,6.02-2.89,12.35-3.34,19
				c-2.92,42.32,24.56,81.64,65.33,93.55c48.05,13.9,98.56-13.81,112.49-61.87l234.6-807.31c6.72-23.16,3.95-47.67-7.78-69.03
				c-11.73-21.34-30.94-36.79-54.07-43.5C1027.62,1606.46,1019.15,1605.24,1010.72,1605.24z M1129.94,1730.76h0.1H1129.94z"/>
		</g>
	</g>
</g>
<g>
	<g>
		<g>
			<g>
				<path class="st5" d="M2920.3,878.68c-238.61-228.85-557.88-373.9-912.16-385.86c-393.22-13.3-754.49,139.88-1017.02,396.48
					c-207.52,202.74-353.52,470.05-404.9,770.95c58.84-27.27,126.86-42,203.21-39.99c59.61-255.07,198.53-478.37,388.25-642.93
					c220.91-191.83,510.71-303.86,823.95-293.24c279.66,9.47,534.15,115.19,733.16,284.63c211.63,180.16,360.5,432.35,410.54,717.37
					c72.81-7.18,138.54,0.29,196.52,18.56C3297.64,1382.6,3144.47,1093.57,2920.3,878.68z"/>
			</g>
		</g>
	</g>
</g>
<g class="st6">
	<g>
		<g>
			<g>
				<path class="st7" d="M2920.3,878.68c-238.61-228.85-557.88-373.9-912.16-385.86c-393.22-13.3-754.49,139.88-1017.02,396.48
					c-207.52,202.74-353.52,470.05-404.9,770.95c5.55-2.58,11.29-5.07,17.03-7.37c62.28-266.65,199.86-503.35,387.87-687.04
					c262.53-256.6,623.8-409.78,1017.02-396.48c354.28,11.96,673.55,157,912.16,385.86c205.32,196.8,351.03,455.79,407.96,745.4
					c4.59,1.24,9.09,2.58,13.59,4.02C3297.64,1382.6,3144.47,1093.57,2920.3,878.68z"/>
			</g>
		</g>
	</g>
</g>
<g class="st3">
	<g>
		<g>
			<path class="st4" d="M3335.04,1660.79c-0.49-2.86-0.96-5.73-1.46-8.58c-52.93-300.93-201.35-570.37-413.27-773.52
				c-0.12,6.04-0.4,11.94-0.88,17.69c-4.73,56.81-74.93,80.58-114.91,39.95c-182.85-185.8-550.06-312.14-808.24-320.88
				c-313.24-10.62-657.77,115.97-869.41,316.25c-47.49-5.66-81.31-31.82-88.37-86.61c-184.05,179.81-356.89,445.2-429.5,712.84
				c-0.48,0.19-0.97,0.34-1.45,0.53c-5.55,22.33-10.38,44.95-14.85,67.68c-2.34,11.38-4.54,22.76-6.48,34.12
				c58.84-27.27,126.86-42,203.21-39.99c2.01-8.6,4.34-17.07,6.53-25.59c68.09-248.7,285.25-526.98,468.61-686.09
				c207.59-149.41,463.38-233.77,737.07-224.5c279.66,9.47,534.15,115.19,733.16,284.63c211.63,180.16,360.5,432.35,410.54,717.37
				c72.81-7.18,138.54,0.29,196.52,18.56C3339.83,1689.95,3337.5,1675.34,3335.04,1660.79z"/>
		</g>
	</g>
</g>
<g>
	<g>
		<g>
			<g>
				<path class="st4" d="M3341.89,1738.14c-3.38,0-6.77-0.5-10.08-1.55c-56.34-17.79-117.99-23.59-183.23-17.22
					c-17.46,1.54-33.21-10.3-36.24-27.55c-95.79-545.95-563.38-955.69-1111.81-974.24c-555.14-18.33-1050.81,364.08-1178.48,910.34
					c-3.62,15.49-17.85,26.26-33.52,25.85c-68.26-1.79-131.51,10.52-188.23,36.84c-11.29,5.24-24.55,3.78-34.44-3.77
					c-9.88-7.56-14.76-19.97-12.67-32.24C673.73,949.23,1299.74,435.4,2009.25,459.41c337.83,11.43,661.65,144.27,911.8,374.05
					c247.21,227.09,408.45,534.86,454.02,866.65c1.56,11.36-2.81,22.75-11.58,30.14
					C3357.36,1735.42,3349.69,1738.14,3341.89,1738.14z M3199.15,1649.89c35.01,0,69.03,3.27,101.86,9.79
					c-110.88-638.04-647.44-1111.46-1294.03-1133.34C1350.19,504.21,768.99,965.27,630.46,1607.56
					c42-12.83,86.38-19.79,132.71-20.81c144.34-563.47,661.5-955.67,1239.6-936.1c284.49,9.62,559.01,119.48,772.98,309.34
					c203.35,180.43,343.54,424.7,396.94,690.51C3181.58,1650.09,3190.39,1649.89,3199.15,1649.89z"/>
			</g>
		</g>
	</g>
</g>
<g>
	<g>
		<g>
			<path class="st10" d="M1338.51,1245.21c-75.87,87.06-143.32,189.05-201.68,302.71C597.03,1493.01,602,916.28,911.8,962.69
				C1064.11,1122.46,1143.81,1186.37,1338.51,1245.21z"/>
		</g>
	</g>
</g>
<g>
	<g>
		<g>
			<path class="st10" d="M2827.02,1547.07c-57.88-114.62-124.47-217.37-199.39-304.82c187.81-57.98,267.41-122.37,417.24-279.56
				C3353.32,916.48,3359.54,1487.85,2827.02,1547.07z"/>
		</g>
	</g>
</g>
<g class="st3">
	<g>
		<g>
			<path class="st8" d="M2827.02,1547.07c-22.58-44.58-46.31-87.35-71.47-128.01c316.88-52.72,424.51-295.44,381.17-450.25
				C3347.97,1037.98,3299.94,1494.45,2827.02,1547.07z"/>
		</g>
	</g>
	<g>
		<g>
			<path class="st4" d="M2824.03,1552.6l-1.62-3.2c-23.09-45.59-47.07-88.53-71.26-127.64l-4.05-6.55l7.6-1.26
				c148.07-24.63,266.06-95.51,332.24-199.56c49.21-77.36,65.95-168.65,44.81-244.19l-2.61-9.31l9.19,3.01
				c83.94,27.49,132.8,119,121.59,227.72c-16.23,157.35-156.21,329.86-432.33,360.59L2824.03,1552.6z M2763.95,1422.85
				c22.42,36.66,44.61,76.53,66.05,118.68c268.05-31.16,403.9-198.43,419.64-350.97c10.46-101.37-30.73-183.98-105.48-213.57
				c18.01,76.36,0.2,166.38-48.5,242.95C3029.01,1324.72,2911.41,1396.59,2763.95,1422.85z"/>
		</g>
	</g>
</g>
<g class="st3">
	<g>
		<g>
			<path class="st8" d="M1123.92,1547.07c22.58-44.58,46.31-87.35,71.47-128.01c-316.88-52.72-424.51-295.44-381.17-450.25
				C602.97,1037.98,651,1494.45,1123.92,1547.07z"/>
		</g>
	</g>
	<g>
		<g>
			<path class="st4" d="M1126.91,1552.6l-3.56-0.39c-276.12-30.73-416.1-203.24-432.33-360.59
				c-11.21-108.72,37.65-200.23,121.59-227.72l9.19-3.01l-2.61,9.31c-21.15,75.54-4.4,166.83,44.81,244.19
				c66.18,104.05,184.17,174.92,332.24,199.56l7.6,1.26l-4.05,6.55c-24.19,39.1-48.17,82.04-71.26,127.64L1126.91,1552.6z
				 M806.78,976.99c-74.74,29.6-115.94,112.21-105.48,213.57c15.73,152.54,151.59,319.81,419.64,350.97
				c21.44-42.15,43.64-82.02,66.05-118.68c-147.47-26.26-265.07-98.13-331.71-202.91C806.58,1143.36,788.76,1053.35,806.78,976.99z"
				/>
		</g>
	</g>
</g>
<g>
	<g>
		<g>
			<path class="st4" d="M1136.84,1581.41c-1.13,0-2.26-0.05-3.4-0.17c-210.17-21.38-369.33-123.36-436.65-279.77
				c-45.8-106.41-38.19-223.46,19.4-298.19c46.22-59.98,117.44-86.19,200.58-73.71c7.36,1.11,14.14,4.63,19.28,10.01
				c152.16,159.63,228.87,218.19,412.16,273.59c10.88,3.28,19.35,11.87,22.49,22.79c3.14,10.93,0.53,22.7-6.94,31.26
				c-72.93,83.68-139.25,183.27-197.14,296.01C1160.84,1574.47,1149.29,1581.41,1136.84,1581.41z M877.21,993.52
				c-45.28,0-82.23,17.22-107.99,50.64c-42.98,55.79-47.27,146.39-10.93,230.83c55.1,128,185.43,213.58,359.52,236.99
				c49-92.53,103.68-176.37,163.05-250.08c-160.47-54.8-244.73-121.07-385.04-267.45C889.48,993.82,883.27,993.52,877.21,993.52z"/>
		</g>
	</g>
</g>
<g>
	<g>
		<g>
			<path class="st4" d="M2827.01,1580.55c-12.52,0-24.14-7.02-29.88-18.39c-57.64-114.12-123.22-214.43-194.93-298.13
				c-7.34-8.57-9.87-20.25-6.74-31.09c3.13-10.84,11.51-19.37,22.29-22.7c176.99-54.64,252.21-112.6,402.87-270.66
				c5.14-5.39,11.92-8.91,19.28-10.02c82.85-12.4,153.97,13.57,200.2,73.18c57.44,74.06,65.57,190.4,20.74,296.4
				c-65.83,155.62-222.61,258.12-430.12,281.2C2829.48,1580.49,2828.23,1580.55,2827.01,1580.55z M2684.63,1258.8
				c58.54,73.92,112.69,158.45,161.46,252.07c171.32-24.86,299.32-110.72,353.08-237.81c35.55-84.04,30.85-174.04-11.98-229.26
				c-29.2-37.65-72.75-54.58-126.34-49.37C2922.23,1139.1,2839.54,1204.69,2684.63,1258.8z"/>
		</g>
	</g>
</g>
<g>
	<g>
		<g>
			<path class="st8" d="M2627.63,1275.73h-0.1c-18.49,0-33.49-14.99-33.49-33.48c0-18.5,15-33.48,33.49-33.48
				s33.53,14.99,33.53,33.48C2661.07,1260.75,2646.12,1275.73,2627.63,1275.73z"/>
		</g>
	</g>
</g>
<g>
	<g>
		<g>
			<path class="st11" d="M2200.16,952.16c-8.23-2.49-16.55-4.69-24.88-6.79c-59.61-15.12-121.99-22.96-186.76-22.96
				c-89.65,0-174.99,15.02-255.55,43.34l168.36-752.16c16.63-74.3,122.65-73.95,138.78,0.46L2200.16,952.16z"/>
		</g>
	</g>
</g>
<g>
	<g>
		<g>
			<path class="st7" d="M2040.09,214.03c-3.48-16.1-11.31-28.51-21.38-37.66c-1.25-1.14-2.44-2.35-3.75-3.37
				c-1.6-1.25-3.3-2.3-5-3.39c-1.24-0.8-2.46-1.61-3.73-2.33c-1.75-0.97-3.52-1.83-5.33-2.64c-1.36-0.61-2.72-1.17-4.11-1.7
				c-1.83-0.69-3.64-1.35-5.51-1.88c-1.5-0.43-3.03-0.75-4.56-1.08c-1.82-0.4-3.62-0.86-5.47-1.13c-3.13-0.45-6.29-0.7-9.46-0.75
				c-1.52-0.02-3.02,0.14-4.54,0.21c-2.01,0.09-4.01,0.19-6,0.44c-1.51,0.19-3,0.48-4.5,0.76c-2.03,0.38-4.03,0.84-6.02,1.39
				c-1.38,0.38-2.73,0.77-4.08,1.24c-2.24,0.76-4.41,1.68-6.56,2.66c-1.03,0.47-2.08,0.87-3.09,1.39c-3.13,1.62-6.17,3.45-9.04,5.55
				c-0.32,0.24-0.61,0.53-0.93,0.78c-2.54,1.93-4.95,4.07-7.23,6.39c-0.76,0.78-1.45,1.63-2.18,2.46c-1.76,1.98-3.42,4.07-4.97,6.31
				c-0.7,1-1.37,2.03-2.02,3.09c-1.48,2.41-2.81,4.96-4.03,7.64c-0.46,1.01-0.97,1.97-1.39,3.02c-1.54,3.82-2.89,7.83-3.86,12.16
				l-168.36,752.16l0,0l0,0c0.04-0.01,0.08-0.03,0.12-0.04c23.33-8.2,47.11-15.14,71.24-21.07l151.6-677.27
				c4.01-17.93,23.09-29.08,40.12-22.2c19.65,7.94,35.97,24.73,41.56,50.47l141.12,650.59c7.18,1.82,14.35,3.83,21.43,5.93
				L2040.09,214.03z"/>
		</g>
	</g>
</g>
<g class="st3">
	<g>
		<g>
			<path class="st4" d="M2200.16,952.16c-8.23-2.49-16.55-4.69-24.88-6.79c-59.61-15.12-121.99-22.96-186.76-22.96
				c-89.65,0-174.99,15.02-255.55,43.34l44.49-198.53c58.17,27.65,115.82,18.35,183.18,18.35c68.6,0,120.21-59.01,179.15-87.62
				L2200.16,952.16z"/>
		</g>
	</g>
</g>
<g>
	<g>
		<g>
			<path class="st1" d="M3072.61,1547.93c-61.81,45.92-129.83,76.64-201.68,92.23c-108.88,23.92-226.56,13.3-344.72-31.19
				c-210.2,123.33-371.31,36.74-531.67-86.68c-33.29-25.64-66.59-52.91-100.27-80.18c-153.85-124.47-316.01-249.81-527.84-227.9
				c107.25-115,230.19-200.73,366.53-248.47c80.56-28.32,165.9-43.34,255.55-43.34c64.77,0,127.15,7.85,186.76,22.96
				c8.32,2.1,16.65,4.31,24.88,6.79c136.62,39.42,259.09,117.01,366.43,224.26c6.89,7.27,13.97,14.54,21.34,21.81
				c141.6,143.03,335.05,289.13,461.44,340.89C3057.4,1542.48,3065.15,1545.44,3072.61,1547.93z"/>
		</g>
	</g>
</g>
<g class="st6">
	<g>
		<g>
			<path class="st7" d="M3072.61,1547.93c-11.19,8.32-22.58,16.17-34.16,23.44c-119.88-68.89-266.07-183.22-379.64-295.73
				c-7.56-7.27-14.73-14.54-21.81-21.81c-109.45-107.25-234.31-184.84-373.61-224.26c-8.42-2.49-16.84-4.69-25.35-6.79
				c-58.07-14.45-118.73-22.29-181.69-22.87c-17.8,87.35-181.88,110.7-219.38,27.84c-16.84,4.59-33.49,9.76-49.94,15.4
				c-107.54,36.93-206.85,96.54-296.88,174.89c-39.42-6.6-80.46-8.32-123.71-3.83c107.25-115,230.19-200.73,366.53-248.47
				c80.56-28.32,165.9-43.34,255.55-43.34c64.77,0,127.15,7.85,186.76,22.96c8.32,2.1,16.65,4.31,24.88,6.79
				c136.62,39.42,259.09,117.01,366.43,224.26c6.89,7.27,13.97,14.54,21.34,21.81c141.6,143.03,335.05,289.13,461.44,340.89
				C3057.4,1542.48,3065.15,1545.44,3072.61,1547.93z"/>
		</g>
	</g>
</g>
<g>
	<g>
		<g>
			<path class="st2" d="M1994.55,1522.29c-296.69,239.67-389.59-231.72-780.32-105.82c-1.05,0.29-2.01,0.57-3.06,0.96
				c39.32-62.28,81.8-119.98,127.34-172.21c9.19-10.52,18.56-20.95,27.94-31c211.82-21.91,373.99,103.42,527.84,227.9
				C1927.96,1469.38,1961.26,1496.65,1994.55,1522.29z"/>
		</g>
	</g>
</g>
<g class="st6">
	<g>
		<g>
			<path class="st7" d="M1994.55,1522.29c-8.04,6.51-15.98,12.53-23.73,17.99c-12.53-10.14-25.07-20.38-37.6-30.52
				c-19.33-15.6-38.75-31.29-58.46-46.59c-136.91-107.06-284.15-200.44-469.38-181.3c-9.38,10.05-18.75,20.47-27.94,31
				c-4.5,5.17-8.99,10.43-13.39,15.69c-27.08,0.57-54.25,4.88-81.42,14.06l-68.41,73.86c-1.05,0.29-2.01,0.57-3.06,0.96
				c39.32-62.28,81.8-119.98,127.34-172.21c9.19-10.52,18.56-20.95,27.94-31c211.82-21.91,373.99,103.42,527.84,227.9
				C1927.96,1469.38,1961.26,1496.65,1994.55,1522.29z"/>
		</g>
	</g>
</g>
<g>
	<g>
		<g>
			<path class="st4" d="M2325.2,1702.48c-135.77,0-250.13-75.95-351.08-153.65c-28.58-22.01-57.57-45.51-85.6-68.25
				c-154.14-125-313.46-254.22-518.64-233.05c-13.89,1.46-27.2-5.9-33.42-18.4c-6.22-12.5-4.03-27.55,5.49-37.75
				c114.11-122.37,241.95-208.91,379.95-257.24c85.36-30,175.08-45.22,266.61-45.22c66.6,0,132.21,8.07,194.99,24
				c8.78,2.21,17.61,4.55,26.35,7.2c137.53,39.68,265.65,117.99,380.4,232.63c7.28,7.67,14.09,14.66,21.19,21.67
				c155.09,156.67,357.82,303.48,471.82,341.78c11.82,3.98,20.46,14.18,22.41,26.5c1.96,12.31-3.09,24.69-13.1,32.12
				c-64.97,48.28-137.15,81.28-214.55,98.09c-109.84,24.14-230.12,14.73-348.74-27.16
				C2456.1,1686.06,2388.34,1702.48,2325.2,1702.48z M1448.72,1179.49c191.66,13.59,344.8,137.81,481.99,249.07
				c28.99,23.51,56.36,45.7,84.27,67.2c170.38,131.14,312.5,191.01,494.3,84.33c8.71-5.11,19.28-6.01,28.74-2.46
				c111.26,41.9,223.9,52.21,325.74,29.83c48.46-10.53,94.62-28.29,137.84-52.98c-137.33-66.87-315.75-209.74-437.46-332.68
				c-7.37-7.27-14.72-14.8-21.86-22.35c-105.99-105.88-224.44-178.48-351.4-215.11c-8.15-2.46-15.96-4.52-23.78-6.49
				c-57.45-14.57-117.51-21.96-178.57-21.96c-83.96,0-166.2,13.95-244.44,41.46C1638.99,1034.14,1539.94,1095.26,1448.72,1179.49z"
				/>
		</g>
	</g>
</g>
<g>
	<g>
		<g>
			<path class="st4" d="M1831.28,1624.89c-82.03,0-151.92-46.34-220.43-91.76c-105.03-69.63-213.63-141.61-389.23-83.89
				c-13.41,4.4-28.17-0.08-36.86-11.2c-8.69-11.14-9.46-26.54-1.92-38.48c40.63-64.35,84.51-123.69,130.42-176.35
				c9.77-11.2,19.43-21.92,28.7-31.85c5.52-5.9,12.99-9.62,21.04-10.45c232.54-24.03,410.66,120.29,567.7,247.65
				c28.99,23.51,56.36,45.71,84.27,67.2c8.13,6.25,12.94,15.88,13.06,26.14c0.12,10.25-4.46,20-12.44,26.44
				C1946.58,1604.1,1886.21,1624.89,1831.28,1624.89z M1343.89,1361.3c128.99,0,223.81,62.86,303.97,116.01
				c101.43,67.24,177.24,117.5,291.21,44.01c-16.99-13.53-33.94-27.27-50.54-40.74c-151.01-122.46-307.01-248.82-506.23-234.16
				c-6.07,6.66-12.28,13.62-18.55,20.82c-26.54,30.43-52.39,63.25-77.3,98.13C1306.33,1362.58,1325.45,1361.3,1343.89,1361.3z"/>
		</g>
	</g>
</g>
<g>
	<g>
		<g>
			<path class="st10" d="M3056.35,3146.47c-10.24,42.96-22.58,84.58-37.12,124.57c-129.93,358.4-437.52,592.51-1034.63,583.71
				c-550.32-8.04-856.67-226.65-1000.57-564c-5.07-11.86-9.95-23.92-14.64-36.07c-90.8-236.41-106.96-526.88-74.72-842.13
				c32.72-320.03,116.15-619.4,242.15-864.61c23.34-45.45,48.12-89.07,74.34-130.5c43.25-14.16,82.85-21.14,119.59-22.48
				c255.26-9.57,366.72,250,561.52,186.28c31.57-10.33,65.35-29.09,102.28-58.94c160.35,123.42,321.47,210.01,531.67,86.68
				c118.16,44.49,235.84,55.11,344.72,31.19c18.08,41.04,35.21,83.24,51.28,126.67c72.52,196.23,123.8,415.61,152.31,645.71
				C3107.44,2678.33,3108.11,2929.95,3056.35,3146.47z"/>
		</g>
	</g>
</g>
<g>
	<g>
		<g>
			<path class="st4" d="M2016.47,3888.48c-10.73,0-21.48-0.08-32.36-0.24c-521.9-7.63-868.73-204.23-1030.87-584.35
				c-5.09-11.91-10.17-24.41-15.08-37.16c-86.21-224.45-112.03-512.98-76.79-857.6c33.27-325.38,118.23-628.47,245.68-876.51
				c24.03-46.77,49.54-91.56,75.83-133.1c4.15-6.57,10.45-11.48,17.84-13.91c206.44-67.89,339.91,20.59,447.15,91.69
				c111.31,73.79,191.74,127.12,325.64,18.93c12.05-9.74,29.2-9.93,41.47-0.49c170.38,131.16,312.5,191.02,494.3,84.34
				c8.71-5.11,19.28-6.01,28.74-2.46c111.26,41.9,223.9,52.21,325.74,29.83c15.59-3.41,31.37,4.6,37.81,19.17
				c99.39,224.89,170.69,495.23,206.2,781.79c36.1,291.58,29.76,542.51-18.84,745.83c-10.61,44.51-23.47,87.65-38.22,128.22
				C2904.89,3684.67,2556.97,3888.48,2016.47,3888.48z M1232.99,1445.65c-22.94,36.92-45.24,76.42-66.38,117.57
				c-123.68,240.69-206.2,535.56-238.63,852.72c-34.16,334.07-9.72,612.21,72.67,826.72c4.61,11.96,9.39,23.71,14.17,34.92
				c150.81,353.56,477.25,536.48,970.26,543.68c10.97,0.16,21.93,0.24,32.72,0.24c515.55,0.02,832.94-183.99,969.94-561.89
				c13.89-38.21,26.01-78.87,36.03-120.92c0.01-0.01,0.01-0.02,0.01-0.03c46.74-195.5,52.63-438.42,17.52-722.02
				c-33.44-269.8-99.14-524.48-190.39-738.53c-102.42,17.15-212.72,6.05-321.61-32.39c-220.05,121.23-390.99,26.52-534.68-81.33
				c-160.85,116.52-274.09,41.44-383.77-31.28C1508.1,1465.01,1401.92,1394.61,1232.99,1445.65z"/>
		</g>
	</g>
</g>
<g>
	<g>
		<g>
			<path class="st8" d="M1211.16,1450.91h-0.1c-18.49,0-33.49-14.99-33.49-33.48s15-33.48,33.49-33.48
				c18.49,0,33.53,14.99,33.53,33.48S1229.66,1450.91,1211.16,1450.91z"/>
		</g>
	</g>
</g>
<g>
	<g>
		<g>
			<path class="st8" d="M1994.58,1555.78c-10.82,0-21.44-5.24-27.89-14.92c-10.06-15.09-6.26-35.36,8.39-45.81
				c14.34-11.18,35.33-9.15,46.86,5c11.64,14.28,9.86,35.03-4.35,46.74c-1.47,1.21-2.98,2.38-4.46,3.36
				C2007.42,1553.95,2000.96,1555.78,1994.58,1555.78z M1975.98,1494.42c-0.08,0.05-0.15,0.1-0.22,0.14
				C1975.83,1494.53,1975.9,1494.47,1975.98,1494.42z"/>
		</g>
	</g>
</g>
<g>
	<g>
		<g>
			<path class="st4" d="M2514.46,1640.33c-44.97-13.21-87.46-33.55-127.42-57.29c-40.06-23.71-77.01-52.03-111.76-82.22
				c-34.75-30.26-66.94-63.07-96.71-97.63c-29.6-34.73-56.96-71.1-81-109.54c-1.41-2.26-0.73-5.24,1.53-6.65
				c1.86-1.17,4.23-0.89,5.8,0.5c33.6,29.99,67,59.43,101.5,87.11c34.33,27.84,69.58,54.04,105.71,78.38
				c36.11,24.39,73.48,46.25,111.04,67.03c37.64,20.76,76.08,39.21,114.82,57.61l0.36,0.17c16.75,7.95,23.88,27.97,15.92,44.73
				C2547.07,1637.64,2530.03,1644.92,2514.46,1640.33z"/>
		</g>
	</g>
</g>
<g>
	<g>
		<g>
			<path class="st12" d="M3019.23,3271.03c-129.93,358.4-437.52,592.51-1034.63,583.71c-550.32-8.04-856.67-226.65-1000.57-564
				c-5.07-11.86-9.95-23.92-14.64-36.07c53.58-73.38,114.91-140.74,182.84-200.82c81.8-72.52,173.17-134.52,271.91-183.98
				c169.82-85.15,361.46-133.08,564.39-133.08c198.91,0,387.1,46.12,554.44,128.11c99.69,48.89,192.11,110.6,274.87,182.93
				C2893.42,3113.84,2961.15,3188.85,3019.23,3271.03z"/>
		</g>
	</g>
</g>
<g class="st6">
	<g>
		<g>
			<path class="st10" d="M3019.23,3271.03c-3.64,9.95-7.37,19.9-11.29,29.66c-47.45-58.46-99.79-112.7-156.43-162.07
				c-86.11-75.3-182.36-139.59-286.07-190.49c-55.01-26.88-112.03-50.13-170.97-69.17c-42.58,98.45-249.9,47.07-254.78-55.49
				c-49.66-5.64-100.17-8.61-151.36-8.61c-211.25,0-410.73,49.85-587.54,138.54c-102.75,51.47-197.86,115.96-283.01,191.45
				c-48.89,43.24-94.43,90.03-136.24,140.07c-4.21-9.95-8.23-20.09-12.15-30.23c53.58-73.38,114.91-140.74,182.84-200.82
				c81.8-72.52,173.17-134.52,271.91-183.98c169.82-85.15,361.46-133.08,564.39-133.08c198.91,0,387.1,46.12,554.44,128.11
				c99.69,48.89,192.11,110.6,274.87,182.93C2893.42,3113.84,2961.15,3188.85,3019.23,3271.03z"/>
		</g>
	</g>
</g>
<g class="st3">
	<g>
		<g>
			<path class="st4" d="M3019.23,3271.03c-129.93,358.4-437.52,592.51-1034.63,583.71c-550.32-8.04-856.67-226.65-1000.57-564
				c-5.07-11.86-9.95-23.92-14.64-36.07c23.54-32.24,48.6-63.43,75.2-93.19c162.36,269.13,457.33,438.09,940.01,445.17
				c505.83,7.46,803.96-159.39,962.3-428.53C2972.35,3207.98,2996.55,3238.89,3019.23,3271.03z"/>
		</g>
	</g>
</g>
<g>
	<g>
		<g>
			<g>
				<ellipse class="st4" cx="2502.13" cy="2276.66" rx="220.05" ry="273.33"/>
			</g>
		</g>
	</g>
	<g>
		<g>
			<g>
				
					<ellipse transform="matrix(6.505121e-03 -1 1 6.505121e-03 233.8836 4599.3989)" class="st10" cx="2431.65" cy="2181.99" rx="75.3" ry="58.36"/>
			</g>
		</g>
	</g>
	<g>
		<g>
			<g>
				
					<ellipse transform="matrix(0.0459 -0.9989 0.9989 0.0459 183.0003 4795.3257)" class="st10" cx="2601.77" cy="2301.87" rx="37.65" ry="29.18"/>
			</g>
		</g>
	</g>
	<g>
		<g>
			<g>
				<ellipse class="st4" cx="1513.89" cy="2276.66" rx="220.05" ry="273.33"/>
			</g>
		</g>
	</g>
	<g>
		<g>
			<g>
				
					<ellipse transform="matrix(1 -6.505121e-03 6.505121e-03 1 -14.1606 10.3527)" class="st10" cx="1584.37" cy="2181.99" rx="58.36" ry="75.3"/>
			</g>
		</g>
	</g>
	<g>
		<g>
			<g>
				
					<ellipse transform="matrix(0.9989 -0.0459 0.0459 0.9989 -104.0868 67.2867)" class="st10" cx="1414.24" cy="2301.87" rx="29.18" ry="37.65"/>
			</g>
		</g>
	</g>
</g>
<g>
	<g>
		<g>
			<path class="st4" d="M1704.6,3146.15c20.06,21.77,41.83,38.28,65.16,51.21c23.22,12.98,47.62,22.72,72.66,30.22
				c50.07,14.97,102.45,22.08,154.74,22.79c52.23,0.54,104.66-4.5,154.3-18.93c49.48-14.69,96.48-38.25,132.55-85.29
				c-2.38,29.59-16.35,58.75-36.21,82.82c-19.96,24.21-45.66,43.41-73.15,58.01c-55.44,28.98-117.66,40.73-178.7,39.91
				c-61.1-0.92-122.42-15.03-177.02-44.11c-27.11-14.71-52.5-33.41-73.06-56.59C1725.51,3203.07,1709.76,3175.37,1704.6,3146.15z"/>
		</g>
	</g>
</g>
<g>
	<g>
		<g>
			<path class="st4" d="M2362.76,1846.71c16.95-27.79,44.99-47.8,76.35-58.9c31.49-11.07,66.28-13,99.03-6.67
				c32.81,6.29,63.85,20.69,89.31,41.82c25.05,21.01,45.98,49.83,50.12,82.54c-27.66-17.07-52.25-28-77.39-37.48
				c-24.95-9.31-49.79-16.24-74.77-21.13c-25.02-4.84-50.15-7.52-76.5-7.53C2422.41,1839.19,2395.11,1842.16,2362.76,1846.71z"/>
		</g>
	</g>
</g>
<g>
	<g>
		<g>
			<path class="st4" d="M1653.18,1837.98c-32.55-2.81-59.97-4.32-86.43-2.72c-26.31,1.41-51.26,5.43-75.99,11.61
				c-24.69,6.23-49.12,14.46-73.54,25.1c-24.59,10.81-48.56,23.03-75.27,41.57c2.39-32.89,21.74-62.78,45.64-85.1
				c24.29-22.46,54.51-38.5,86.94-46.53c32.38-8.07,67.22-8.01,99.25,1.35C1605.7,1792.66,1634.77,1811.14,1653.18,1837.98z"/>
		</g>
	</g>
</g>
<g>
	<g>
		<g>
			<path class="st4" d="M2016.47,3888.48c-10.73,0-21.48-0.08-32.36-0.24c-521.9-7.63-868.73-204.23-1030.87-584.35
				c-5.09-11.91-10.17-24.41-15.08-37.16c-4.1-10.62-2.52-22.59,4.2-31.8c54.9-75.2,118.05-144.56,187.69-206.17
				c84.37-74.79,178.28-138.33,279.1-188.83c180.81-90.66,375.74-136.63,579.38-136.63c199.56,0,391.06,44.25,569.17,131.52
				c101.78,49.92,196.71,113.09,282.17,187.78c77.68,67.85,147.23,144.94,206.71,229.1c6.33,8.95,7.87,20.44,4.13,30.74
				C2904.89,3684.67,2556.97,3888.48,2016.47,3888.48z M1007.38,3259.67c2.47,6.1,4.95,12.08,7.45,17.91
				c150.81,353.56,477.25,536.48,970.26,543.68c527.3,7.78,853.36-170.64,996.54-545.21c-54.1-74.27-116.56-142.51-185.83-203.02
				c-81.05-70.84-171.08-130.75-267.58-178.08c-168.85-82.73-350.43-124.69-539.69-124.69c-193.12,0-377.96,43.58-549.38,129.53
				c-95.62,47.89-184.67,108.15-264.71,179.1C1112.96,3133.29,1056.83,3194.03,1007.38,3259.67z"/>
		</g>
	</g>
</g>
<g class="st3">
	<g>
		<g>
			<path class="st8" d="M2870.93,1640.16c-108.88,23.92-226.56,13.3-344.72-31.19c-210.2,123.33-371.31,36.74-531.67-86.68
				c-36.93,29.85-70.7,48.6-102.28,58.94c-194.79,63.72-372.65-195.32-627.91-185.75c-42.67,49.75-82.57,104.38-119.59,163.13
				c393.32-129.35,552.33,344.67,849.78,104.33c160.35,123.42,321.47,210.01,531.67,86.68c118.16,44.49,235.84,55.11,344.72,31.19
				c17.32-3.83,34.44-8.42,51.28-13.97C2906.14,1723.4,2889.01,1681.2,2870.93,1640.16z"/>
		</g>
	</g>
</g>
<g class="st3">
	<g>
		<g>
			<path class="st8" d="M1970.82,1540.28c-253.06,178.72-357.25-171.55-660.16-144.09c-11.86,1.15-24.01,2.77-36.55,5.07
				c-4.69,0.86-9.38,1.82-14.16,2.87c-6.41,1.34-12.92,2.97-19.42,4.69c-1.44,0.29-2.77,0.67-4.21,1.15
				c-3.06,0.77-6.12,1.63-9.28,2.58c-4.21,1.24-8.51,2.49-12.82,3.92l68.41-73.86c27.17-9.19,54.34-13.49,81.42-14.06
				c210.1-4.88,409.3,215.46,510.71,134.61c19.71,15.31,39.13,31,58.46,46.59C1945.76,1519.9,1958.29,1530.13,1970.82,1540.28z"/>
		</g>
	</g>
	<g>
		<g>
			<path class="st4" d="M1830.86,1596.87c-72.52,0-135.47-41.73-204.33-87.37c-85.07-56.39-181.49-120.31-315.4-108.17
				c-12.51,1.21-24.32,2.86-36.08,5.02c-4.63,0.85-9.26,1.79-13.99,2.83c-6.37,1.33-12.78,2.94-19.2,4.64
				c-1.53,0.31-2.66,0.64-3.88,1.05c-3.38,0.87-6.36,1.7-9.43,2.63l-1.59,0.46c-3.66,1.08-7.38,2.17-11.1,3.41l-19.1,6.36
				l82.98-89.59l1.24-0.42c26.36-8.91,54.28-13.73,82.97-14.33c101.56-2.13,199.92,46.89,286.62,90.37
				c91.54,45.89,170.6,85.51,220.98,45.37l3.18-2.53l3.21,2.49c19.12,14.85,37.98,30.06,56.74,45.2l44.7,36.28l-5.58,3.94
				C1920.6,1582.08,1874.03,1596.87,1830.86,1596.87z M1344.17,1389.48c120.03,0,208.88,58.9,288.07,111.41
				c105.21,69.73,196.27,130.11,329.98,39.06l-34.04-27.63c-17.69-14.27-35.46-28.61-53.46-42.65
				c-55.48,40.2-135.92-0.12-228.79-46.69c-85.63-42.93-182.57-91.76-281.76-89.27c-27.2,0.57-53.65,5.07-78.65,13.37l-54.6,58.96
				c1.39-0.38,2.77-0.75,4.15-1.1c1.26-0.44,2.81-0.88,4.47-1.2c6.27-1.68,12.87-3.32,19.36-4.68c4.8-1.05,9.55-2.03,14.29-2.9
				c12.04-2.21,24.14-3.89,36.97-5.14C1321.77,1389.99,1333.11,1389.48,1344.17,1389.48z"/>
		</g>
	</g>
</g>
<g class="st3">
	<g>
		<g>
			<path class="st8" d="M3072.61,1547.93c-61.81,45.92-129.83,76.64-201.68,92.23c-108.88,23.92-226.56,13.3-344.72-31.19
				c-210.2,123.33-371.31,36.74-531.67-86.68c-8.04,6.51-15.98,12.53-23.73,17.99c-12.53-10.14-25.07-20.38-37.6-30.52
				c-19.33-15.6-38.75-31.29-58.46-46.59c6.98-5.45,13.49-12.44,19.52-21.05l-118.06-112.7
				c224.74,160.16,434.46,246.08,621.03,217.66c-189.34-131.84-271.62-265.98-274.11-270.19
				c300.13,244.83,591.17,361.94,865.86,245.41l60.37,16.84C3057.4,1542.48,3065.15,1545.44,3072.61,1547.93z"/>
		</g>
	</g>
	<g>
		<g>
			<path class="st4" d="M2325.98,1673.36c-127.38,0.01-235.62-71.07-331.36-144.51c-7.07,5.63-14.06,10.89-20.82,15.65l-3.19,2.24
				l-42.42-34.42c-18.71-15.1-37.52-30.26-56.59-45.09l-5.24-4.07l5.23-4.09c5.61-4.37,10.92-9.86,15.86-16.36l-114.79-109.58
				l6.56-7.94c235.79,168.03,433.63,239.71,604.33,218.54c-185.4-131.96-264.07-262.89-264.86-264.22l-14.75-24.97l22.47,18.33
				c330.9,269.92,612.39,349.95,860.57,244.66l1.67-0.71l62.11,17.33c8.99,3.7,16.47,6.54,23.49,8.87l9.42,3.14l-7.96,5.91
				c-61.71,45.86-130.23,77.19-203.67,93.13c-108.44,23.84-227.8,13.26-345.33-30.54
				C2454.75,1656.46,2388.09,1673.35,2325.98,1673.36z M1994.47,1515.71l3.23,2.48c179.72,138.34,330.37,201.03,525.9,86.32
				l2.12-1.24l2.31,0.87c116.39,43.83,234.58,54.54,341.79,30.98c68.88-14.96,133.36-43.74,191.82-85.59
				c-4.51-1.67-9.23-3.54-14.26-5.63l-58.03-16.16c-71.12,29.92-144.89,44.94-221.61,44.94c-187.38,0.02-392.5-89.5-620.81-270.06
				c34.04,46.53,114.52,143.59,253.27,240.21l10.63,7.4l-12.8,1.95c-163.27,24.91-350.58-34.57-571.13-181.53l74.16,70.79
				l-2.54,3.63c-4.81,6.88-10.02,12.89-15.56,17.93c17.41,13.6,34.6,27.48,51.72,41.28l36.35,29.51c6.6-4.75,13.4-9.96,20.27-15.52
				L1994.47,1515.71z"/>
		</g>
	</g>
</g>
<g>
	<g>
		<g>
			<path class="st4" d="M1809.28,751.72c0.28,1.19,4.09,4.43,9.05,6.99c5.15,2.62,11.62,4.88,18.49,6.65
				c13.79,3.59,29.21,5.47,44.77,6.25c31.23,1.42,63.56-0.92,95.1-6.88c31.54-5.92,62.81-15.1,91.01-29.91
				c14.05-7.41,27.32-16.3,38.35-27.38c10.99-11.02,19.61-24.47,23.14-39.78l0.02-0.09c0.6-2.58,3.16-4.19,5.74-3.59
				c2.39,0.54,3.94,2.79,3.69,5.16c-1.85,17.76-9.95,34.6-20.87,48.53c-10.96,14.03-24.5,25.59-38.85,35.53
				c-28.88,19.85-61.06,33.58-94.06,44.01c-33.08,10.42-67.27,17.2-102.69,19.85c-17.76,1.2-35.81,1.35-54.81-1.14
				c-9.51-1.28-19.26-3.19-29.58-6.81c-10.27-3.95-21.51-8.82-32.31-20.29l-8.5-9.03c-11.63-12.37-11.04-31.82,1.33-43.45
				c12.36-11.63,31.82-11.03,43.45,1.33C1805.55,741.71,1808.07,746.66,1809.28,751.72z"/>
		</g>
	</g>
</g>
<g class="st13">
	<g>
		<g>
			
				<ellipse transform="matrix(0.9857 -0.1684 0.1684 0.9857 -288.9236 599.6589)" class="st7" cx="3391.15" cy="2003.33" rx="66.61" ry="104.19"/>
		</g>
	</g>
</g>
<g class="st13">
	<g>
		<g>
			
				<ellipse transform="matrix(0.3251 -0.9457 0.9457 0.3251 -1377.4177 1933.7114)" class="st7" cx="666" cy="1931.84" rx="104.19" ry="66.61"/>
		</g>
	</g>
</g>
<g>
	<g>
		<g>
			<path class="st4" d="M1826.04,524.61c7.63,7.51,19.35,10.12,31.1,10.48c11.8,0.44,23.91-1.02,35.84-3.29
				c23.93-4.6,47.37-12.72,69.86-22.26c22.37-9.8,44.12-21.27,63.15-34.85c9.45-6.74,18.31-14.08,24.97-21.56
				c3.52-3.69,5.82-7.43,7.57-10.54c1.31-2.95,1.25-5.11,0.71-4.2c1.05-15.81,14.73-27.78,30.55-26.72
				c15.81,1.05,27.78,14.73,26.73,30.55c-1.71,13.68-7.44,23.22-12.95,30.91c-5.71,7.15-11.7,13.12-17.74,17.8
				c-12.08,9.68-24.35,16.67-36.71,22.88c-24.72,12.25-49.96,20.72-75.56,27.44c-25.66,6.4-51.67,11.05-78.27,11.95
				c-13.27,0.4-26.71-0.05-40.12-2.69c-6.69-1.21-13.39-3.42-19.82-6.29c-6.37-3.23-12.45-7.63-16.84-13.7
				c-1.54-2.14-1.06-5.13,1.07-6.68c1.92-1.38,4.52-1.14,6.15,0.47L1826.04,524.61z"/>
		</g>
	</g>
</g>
<g>
	<g>
		<g>
			<path class="st4" d="M1732.98,999.23c-8.08,0-16.02-2.92-22.25-8.46c-9.1-8.08-13.09-20.47-10.43-32.34l167.34-747.6
				c11.06-49.39,52.41-82.51,102.98-82.51c0.13,0,0.26,0,0.39,0c50.74,0.17,92.07,33.6,102.82,83.2l159.05,733.54
				c2.51,11.6-1.3,23.66-10.02,31.71c-8.72,8.04-21.05,10.88-32.41,7.44c-7.73-2.34-15.54-4.4-23.35-6.37
				c-57.45-14.57-117.51-21.96-178.57-21.96c-83.96,0-166.2,13.95-244.44,41.46C1740.46,998.61,1736.7,999.23,1732.98,999.23z
				 M1970.64,195.3c-14.97,0-32.67,7.91-37.65,30.16l-154.71,691.18c68.17-18.42,138.65-27.72,210.24-27.72
				c56.93,0,113.13,5.89,167.46,17.55l-147.61-680.76c-4.84-22.35-22.6-30.37-37.6-30.42C1970.74,195.3,1970.69,195.3,1970.64,195.3
				z"/>
		</g>
	</g>
</g>
<g>
	<g>
		<g>
			<g>
				<g>
					
						<ellipse transform="matrix(0.9914 -0.1307 0.1307 0.9914 -371.9305 248.2063)" class="st4" cx="1704.97" cy="2957.62" rx="44.42" ry="62.19"/>
				</g>
			</g>
		</g>
	</g>
	<g>
		<g>
			<g>
				<g>
					
						<ellipse transform="matrix(0.1307 -0.9914 0.9914 0.1307 -947.0671 4835.126)" class="st4" cx="2283.65" cy="2957.62" rx="62.19" ry="44.42"/>
				</g>
			</g>
		</g>
	</g>
</g>
</svg>
